<svg version="1.1" id="Layer_1" xmlns="http://www.w3.org/2000/svg" xmlns:xlink="http://www.w3.org/1999/xlink" x="0px" y="0px"
	 width="100%" viewBox="0 0 576 1024" enable-background="new 0 0 576 1024" xml:space="preserve">
<path fill="#909090" opacity="1.000000" stroke="none"
	d="
M229.356461,247.477875
	C235.092026,237.813049 242.313828,229.866058 250.046646,222.294220
	C252.360016,220.029037 254.696640,218.873901 257.577606,220.275803
	C260.913971,221.899307 261.057922,224.955765 259.908386,228.023224
	C258.229034,232.504578 257.802460,237.428864 254.966736,241.514359
	C253.897217,243.055252 253.663620,244.907181 254.770233,246.946884
	C257.875946,246.286743 259.947449,244.135803 261.787781,241.851044
	C272.032623,229.132217 279.109161,214.925400 281.866791,198.700882
	C282.169403,196.920593 282.857025,195.189865 283.499329,193.486389
	C284.979706,189.560425 287.738586,188.632553 291.200165,191.160431
	C294.460663,193.541473 297.179871,196.739944 298.431610,200.476898
	C300.060577,205.340088 302.866241,209.431580 305.818237,213.337784
	C311.647552,221.051468 313.877319,230.313446 317.591858,238.921295
	C318.762268,241.633499 317.560638,243.481995 313.964142,244.452789
	C298.906616,248.517288 287.608002,257.357544 281.314697,271.994934
	C280.223724,274.532410 281.160431,276.658051 282.646027,278.466248
	C284.206177,280.365265 286.112793,279.314758 288.091431,278.667694
	C294.553009,276.554565 299.263580,271.629822 305.018188,268.365753
	C311.720276,264.564240 319.111633,263.779358 326.226685,261.841522
	C330.421143,260.699127 334.409027,263.240723 338.066132,264.817230
	C354.033081,271.700348 367.384796,282.049011 378.016846,295.973724
	C382.348755,301.647217 386.877319,307.147980 390.428070,313.357910
	C392.346375,316.712830 393.640778,320.209656 393.380554,324.254761
	C392.936859,331.151550 388.747375,333.557465 382.452087,330.403717
	C375.899506,327.120972 370.845184,321.483978 363.394928,318.496216
	C364.556122,322.797028 362.585327,325.626221 359.245972,327.374695
	C355.788361,329.184998 352.760468,326.829956 349.976685,325.339996
	C337.330841,318.571381 324.004059,314.545685 309.589844,314.427948
	C303.475800,314.377991 298.098602,316.351868 293.901398,320.801392
	C290.124420,324.805389 285.914307,325.361115 281.242065,323.014954
	C271.899841,318.323853 263.196228,319.927734 254.190079,324.485565
	C243.527023,329.881866 235.945480,338.730896 227.397430,346.533295
	C225.451385,348.309601 223.782166,350.715271 220.596512,349.592926
	C217.793152,348.605286 218.176910,345.982452 217.675354,343.755920
	C217.285553,342.025635 216.947815,340.175598 215.370193,338.668060
	C211.301086,339.877869 210.142044,343.103760 210.462280,346.714172
	C210.890579,351.543030 208.252823,352.782013 204.291565,353.145905
	C195.793976,353.926605 187.620148,355.414581 180.469604,360.796722
	C175.880005,364.251312 170.343613,361.015869 170.797241,355.012512
	C171.718384,342.821503 175.452744,331.597900 185.005203,323.212830
	C188.545395,320.105225 190.881821,316.829834 192.587814,312.129395
	C195.790955,303.303986 201.390747,295.556763 208.971756,289.607788
	C212.837143,286.574554 216.062073,283.933563 217.199890,278.150635
	C219.299286,267.480377 223.662918,257.310150 229.356461,247.477875
M241.121185,287.854706
	C240.622543,286.180267 239.584549,285.025574 237.927292,286.227051
	C235.939987,287.667847 234.534714,289.627502 235.451248,292.642090
	C238.379837,292.387817 239.923965,290.674133 241.121185,287.854706
z"/>
<path fill="#909090" opacity="1.000000" stroke="none"
	d="
M438.624084,283.789612
	C437.850433,269.940826 436.147675,256.601349 436.669830,243.142456
	C436.947418,235.987061 436.858490,228.817307 437.145874,221.662491
	C437.444397,214.231583 441.064362,209.454300 446.409760,208.992493
	C450.420380,208.646011 453.686920,211.042694 454.248199,215.034637
	C455.999634,227.491959 457.299103,240.024231 459.444305,252.411316
	C461.274689,262.980469 464.001678,273.395721 467.240662,283.650726
	C471.582184,297.396332 476.144196,311.064087 479.656891,325.072906
	C483.227478,339.312805 488.325226,353.051178 493.818939,366.696625
	C499.015289,379.603424 504.267761,392.417755 510.992523,404.613922
	C512.903931,408.080475 512.459473,411.791260 510.532959,415.155121
	C504.803802,425.158569 504.018097,436.353485 503.497894,447.351990
	C502.727844,463.632843 503.612000,480.027832 501.762756,496.227631
	C500.426422,507.934418 500.439636,519.767212 498.839569,531.309082
	C497.367767,541.925720 494.671753,552.569641 491.874725,563.095337
	C488.349762,576.360229 483.598633,588.942749 477.344971,601.059326
	C475.584137,604.471008 473.632446,607.750122 471.081024,610.649414
	C468.901825,613.125793 466.137665,613.647339 463.409180,612.228638
	C460.768372,610.855469 461.469330,608.151123 462.301147,605.997864
	C469.292725,587.898865 471.033417,568.618469 474.414001,549.780945
	C477.547272,532.321899 478.051147,514.469116 477.866882,496.636139
	C477.736420,484.012024 476.369110,471.819489 471.302490,460.150116
	C469.813934,456.721619 467.887146,453.738861 465.231232,451.129608
	C462.690399,448.633392 462.143860,446.263489 464.550476,442.839142
	C467.470062,438.684875 469.770416,433.962402 470.544403,428.766724
	C471.416809,422.910645 468.496674,420.439178 462.723083,421.712494
	C459.501312,422.423004 456.138428,423.048798 452.876617,422.898499
	C447.355682,422.644104 445.605011,418.955933 448.059143,414.059753
	C450.761047,408.669250 454.264771,403.842865 458.280548,399.417328
	C460.206268,397.295074 460.677124,395.417084 459.695892,392.689545
	C455.619049,381.357269 452.603943,369.815582 450.596680,357.848663
	C448.837036,347.357849 445.439362,337.055878 443.645111,326.522797
	C442.289764,318.566132 440.271149,310.664124 440.542023,302.402802
	C440.740845,296.340027 437.850708,290.464569 438.624084,283.789612
z"/>
<path fill="#909090" opacity="1.000000" stroke="none"
	d="
M77.509354,236.271912
	C76.561195,225.447952 73.511780,215.271133 73.899239,204.727249
	C74.100090,199.261581 76.546989,196.890289 81.078033,197.376755
	C83.174202,197.601791 84.521721,198.554138 84.757675,200.726349
	C86.854935,220.033371 94.498299,237.793732 100.608337,255.921417
	C106.696327,273.983734 113.944649,291.739380 123.439598,308.286804
	C126.855034,314.239075 126.813293,318.515991 124.210625,324.283630
	C121.912201,329.377045 120.315529,334.996887 119.589272,340.538940
	C118.597656,348.105988 120.943962,355.394104 124.587791,361.977295
	C130.557205,372.762085 130.880493,372.760071 123.158920,382.529236
	C108.534821,401.031311 100.145630,422.409546 93.348015,444.695770
	C88.156403,461.716644 86.755760,479.034454 85.971207,496.678040
	C85.607353,504.860535 85.825592,512.958984 86.649788,520.923401
	C87.579765,529.909973 90.057259,538.799805 92.514542,547.548401
	C95.416504,557.880249 98.353134,568.245422 102.706917,578.101685
	C104.584236,582.351685 106.691490,586.507935 108.868164,590.614685
	C110.135071,593.005005 111.077850,595.192017 108.507172,597.270325
	C106.025391,599.276794 103.593369,598.942017 101.267883,596.992126
	C92.270309,589.447693 84.648972,580.691772 78.628632,570.617004
	C69.613358,555.530518 66.148804,538.507385 61.996250,521.750244
	C61.446239,519.530701 61.621975,517.109131 61.615761,514.780701
	C61.579296,501.117523 62.179958,487.421143 61.418427,473.800110
	C60.635784,459.801483 64.645477,446.774109 68.119133,433.697449
	C71.949783,419.276855 75.889214,404.926880 79.066673,390.321594
	C81.855095,377.504517 83.083611,364.513489 84.150444,351.617798
	C85.366928,336.913055 83.697998,321.993286 83.997032,307.181366
	C84.229332,295.674713 83.206024,284.329041 81.871101,272.961273
	C80.450935,260.867645 79.063339,248.770157 77.509354,236.271912
z"/>
<path fill="#909090" opacity="1.000000" stroke="none"
	d="
M168.463547,433.033142
	C161.725342,439.764771 158.243195,448.018646 154.583069,456.124176
	C152.481140,460.778931 151.215195,465.729980 150.062347,470.733490
	C148.705994,476.620392 150.575348,481.074615 155.064346,484.624268
	C159.024628,487.755890 159.290909,491.804932 157.480972,495.823853
	C152.450897,506.993042 150.638992,518.125061 152.698532,530.595215
	C156.856903,555.773315 163.633286,580.119202 172.758362,603.845032
	C175.853653,611.893005 180.426941,619.305176 185.370117,626.410400
	C186.238373,627.658386 187.246155,628.814758 187.267807,630.378784
	C187.292191,632.141296 187.937134,634.151062 186.065262,635.432251
	C184.037491,636.820190 182.127686,635.874573 180.533081,634.658203
	C158.798370,618.078125 137.347733,601.239014 124.713089,575.969360
	C118.274582,563.092224 114.714478,549.336060 111.684341,535.383423
	C108.136040,519.044739 108.209206,502.446747 108.130547,485.867889
	C108.058670,470.718689 110.947578,455.890564 113.345078,441.018555
	C115.467567,427.852417 119.825638,415.372528 126.033424,403.643494
	C128.699951,398.605377 132.135818,393.644135 139.122604,393.621552
	C141.699905,393.613220 143.826950,394.395630 145.270081,396.291504
	C153.009125,406.458618 160.644409,416.705109 168.254990,426.969086
	C169.538742,428.700439 169.415039,430.729614 168.463547,433.033142
z"/>
<path fill="#909090" opacity="1.000000" stroke="none"
	d="
M327.444763,749.713745
	C319.392487,746.933899 311.574951,744.630676 304.047882,741.604919
	C293.468903,737.352295 283.475555,731.757080 272.725067,727.825867
	C256.969910,722.064697 241.115509,718.886597 224.068054,720.843018
	C211.466278,722.289307 199.936478,726.256836 187.729279,730.926208
	C192.780716,735.317566 196.601196,740.045288 199.576035,745.437134
	C202.326019,750.421509 201.027008,752.819580 195.466553,753.402954
	C190.527344,753.921082 185.706726,754.157043 180.676819,753.573853
	C174.810623,752.893677 168.822922,753.106079 162.880768,754.847229
	C158.269882,756.198242 153.272156,755.489319 148.533264,754.326416
	C142.885376,752.940491 141.492493,749.313965 143.525299,743.727295
	C145.808380,737.452820 149.981003,732.180481 152.267715,725.932495
	C154.263565,720.479187 156.022659,715.007996 156.135971,709.141724
	C156.191544,706.264709 156.356842,703.076294 159.279037,701.891785
	C162.229874,700.695618 164.748123,702.220703 167.293839,704.393616
	C171.655167,708.116211 172.240463,714.189026 176.751266,718.172729
	C186.468704,711.401794 197.716690,707.875183 208.683853,703.778503
	C213.323837,702.045288 218.333694,701.503357 223.379745,701.550415
	C238.808624,701.694397 254.235596,700.956421 269.455322,704.873352
	C288.953613,709.891357 307.382477,717.823486 326.189819,724.738892
	C333.196838,727.315430 340.182220,730.236816 347.929138,727.937805
	C352.704376,726.520691 353.441956,724.703186 351.365082,720.384888
	C349.608032,716.731628 347.174622,713.596680 344.580200,710.568970
	C338.007172,702.898254 339.447784,691.090210 347.808014,685.179138
	C353.115021,681.426941 358.885315,678.571838 365.075958,676.555786
	C369.848236,675.001587 373.542816,677.435303 377.051575,679.943604
	C383.259491,684.381287 387.664062,690.454407 391.096130,697.153381
	C396.768799,708.225708 399.995392,719.698181 399.610535,732.526733
	C399.255981,744.343567 392.473114,751.682739 384.163788,754.883118
	C369.494049,760.533386 354.336243,759.676392 339.608032,753.601501
	C335.808167,752.034241 331.749115,751.095398 327.444763,749.713745
z"/>
<path fill="#909090" opacity="1.000000" stroke="none"
	d="
M276.473511,489.078613
	C262.773254,486.703888 256.741119,476.919189 256.437469,462.615845
	C256.083710,445.950867 261.614441,431.525513 269.759644,417.617188
	C272.185394,413.475098 274.498260,409.259186 276.678619,404.983154
	C279.003235,400.424133 281.664001,399.176483 286.673645,400.865479
	C292.909760,402.968018 299.202454,400.536560 305.662903,400.977814
	C301.328461,399.581055 297.204254,398.082306 294.482880,394.115662
	C289.771790,387.248840 291.115723,379.662292 292.476654,372.522705
	C293.528961,367.002106 295.876129,361.435699 300.748810,357.609894
	C304.881165,354.365356 307.977020,354.961517 310.278534,359.694824
	C310.931458,361.037750 311.543640,362.427765 311.945129,363.860443
	C313.062073,367.846008 315.521423,368.895599 319.477417,368.072998
	C326.012299,366.714203 331.621033,363.857422 336.396729,359.184937
	C338.166138,357.453766 340.288727,356.079224 342.276306,354.576477
	C344.679016,352.759949 347.571472,351.618500 350.129089,353.357178
	C352.773010,355.154510 352.212921,358.279327 351.614838,361.160431
	C349.901642,369.412842 344.575989,375.316986 338.700134,380.727509
	C333.955963,385.096008 328.810638,389.032928 323.791687,393.097656
	C319.626373,396.471130 314.847137,398.617493 309.661743,400.203888
	C312.972198,400.286804 316.125122,399.061615 319.302155,398.515564
	C323.502777,397.793579 327.813232,397.152649 331.753204,395.233307
	C334.205811,394.038513 336.760529,391.842010 339.431915,394.624268
	C342.224365,397.532562 342.045044,401.036102 340.302094,404.307129
	C333.621674,416.844330 327.639923,429.836609 317.583374,440.251251
	C316.798737,441.063812 316.282257,442.135284 315.299377,443.593445
	C319.893951,444.128204 323.925171,445.439240 324.912903,450.127350
	C325.783905,454.261566 324.828430,458.182037 322.964935,462.151733
	C317.944122,472.847229 308.304321,477.979309 298.690826,483.166687
	C291.929840,486.814911 284.934692,489.956604 276.473511,489.078613
z"/>
<path fill="#909090" opacity="1.000000" stroke="none"
	d="
M211.321228,476.697754
	C210.407059,485.504028 212.741104,493.246918 216.217575,500.690399
	C217.615585,503.683716 216.546295,505.287506 214.080078,506.826874
	C201.808395,514.486694 197.520737,528.562927 200.454224,542.599976
	C202.384567,551.836853 204.417465,560.994751 206.956863,570.073181
	C211.152740,585.073425 218.539581,598.635498 225.791748,612.256348
	C228.126663,616.641663 230.762817,620.867310 233.282654,625.153381
	C234.437469,627.117676 236.528519,629.206177 234.019333,631.280151
	C231.910126,633.023499 229.248505,633.372437 226.583054,631.909729
	C221.241653,628.978394 217.163055,624.536438 212.833130,620.425110
	C193.743011,602.299072 182.659714,579.372192 174.817291,554.827576
	C169.282928,537.506470 165.782745,519.767273 165.412811,501.306427
	C165.108856,486.137909 166.315063,471.239960 168.953262,456.446838
	C170.324570,448.757446 173.391556,441.425873 180.092529,436.412079
	C186.250504,431.804535 192.491409,433.448944 198.253540,436.827057
	C204.106079,440.258240 209.670837,444.251556 215.039383,448.414246
	C219.230530,451.664093 219.792175,458.072296 216.540207,462.480225
	C213.473373,466.637207 212.414597,471.432587 211.321228,476.697754
z"/>
<path fill="#909090" opacity="1.000000" stroke="none"
	d="
M376.636719,538.536865
	C377.955353,523.459717 378.322937,508.717560 381.986176,494.382080
	C382.884125,490.868103 381.355499,489.413116 377.990417,489.217346
	C370.883972,488.803925 364.309509,491.017731 357.636169,493.014801
	C342.021637,497.687683 327.539307,504.860718 313.130371,512.315186
	C303.531708,517.281006 297.930054,512.701843 297.247864,504.258148
	C296.316895,492.735260 303.637573,483.260406 315.314819,477.870270
	C316.059570,477.526550 316.938171,477.470703 317.679108,477.121124
	C327.024384,472.711761 329.008850,473.318176 334.045349,482.389374
	C338.882202,481.939331 342.716339,478.751373 347.074005,476.979553
	C360.704987,471.437195 373.778168,464.409943 388.068359,460.662872
	C393.225464,459.310669 398.553253,457.111664 404.331848,459.376740
	C409.842163,461.536682 413.608215,465.121704 414.051636,470.870148
	C414.869354,481.470978 414.222015,492.050598 412.226166,502.565521
	C410.375122,512.317749 408.724670,522.063477 405.258209,531.446472
	C399.864014,546.047485 394.872955,560.794312 389.535919,575.420898
	C384.158966,590.156860 379.029541,604.947937 371.777252,618.906372
	C370.284088,621.780212 368.244232,624.026611 365.820801,626.148926
	C362.656616,628.919983 359.894928,628.977356 356.436829,626.615662
	C352.757233,624.102661 351.651031,620.787170 353.486725,617.172180
	C362.477386,599.467285 366.197205,580.004272 372.276337,561.342102
	C374.609711,554.179138 375.222168,546.455627 376.636719,538.536865
z"/>
<path fill="#909090" opacity="1.000000" stroke="none"
	d="
M403.338379,624.895874
	C413.704163,605.268372 418.947601,584.333069 423.329193,563.246948
	C426.783966,546.621094 425.897522,530.062744 418.588379,514.220215
	C415.626892,507.801270 416.544495,505.052032 421.677612,500.157715
	C430.955536,491.311462 434.153656,471.469666 423.294281,460.655640
	C415.674469,453.067719 416.122894,448.761627 423.771545,441.340515
	C427.225342,437.989532 430.733704,434.772156 434.946075,432.286957
	C442.755768,427.679382 447.581116,429.342590 450.346680,438.071014
	C455.057190,452.937744 459.008057,467.890503 459.419495,483.693481
	C460.120361,510.612671 459.856262,537.371521 452.667786,563.615173
	C448.624420,578.376648 443.553741,592.755737 435.348938,605.692017
	C429.679565,614.630798 422.599274,622.611206 414.526337,629.583496
	C413.664886,630.327515 412.513000,630.730835 411.509552,631.315674
	C409.178223,632.674377 406.651581,632.941956 404.405975,631.554810
	C401.999481,630.068176 402.547546,627.555359 403.338379,624.895874
z"/>
<path fill="#909090" opacity="1.000000" stroke="none"
	d="
M241.861877,367.193542
	C239.236664,367.235046 237.274384,366.309601 235.102676,365.313721
	C235.125854,376.349640 237.983353,386.676819 241.715622,396.667847
	C247.747726,412.815338 238.462402,428.860168 221.326202,430.942383
	C218.473099,431.289062 215.706894,431.082153 213.377213,428.919312
	C210.469238,426.219666 209.465042,423.676025 212.983643,420.630981
	C219.824005,414.711304 222.695923,407.088684 222.406693,397.104218
	C218.246506,402.605713 214.113800,406.894806 208.270233,408.968994
	C202.223618,411.115265 195.905624,411.236755 189.624466,411.084045
	C187.046371,411.021393 184.812958,409.216980 184.032532,406.717743
	C183.217224,404.106812 185.095108,402.433319 187.178238,401.103333
	C195.891891,395.540100 200.289154,386.290955 206.415314,378.517822
	C208.157974,376.306641 209.875610,374.075317 211.645035,371.885803
	C213.445160,369.658325 215.810303,369.145752 218.383774,370.133972
	C220.948883,371.118988 222.332199,373.109192 222.337265,375.925018
	C222.347733,381.754486 222.340424,387.583984 222.533386,393.424072
	C223.239792,385.365997 223.931519,377.306610 224.669373,369.251404
	C224.773239,368.117676 224.892563,366.125305 225.359055,366.013916
	C232.264832,364.364532 232.154587,355.231293 239.663925,353.569580
	C249.414993,351.411896 255.989471,343.183868 264.258087,338.068298
	C284.486389,325.553711 305.937134,319.291718 330.023071,322.615845
	C340.068115,324.002136 349.230530,327.101379 358.136993,331.510193
	C360.684204,332.771088 363.002747,334.419647 364.603729,336.858398
	C367.136444,340.716339 365.739655,344.595001 361.206757,344.957703
	C354.750122,345.474365 348.217377,345.630676 341.753998,344.831299
	C322.058136,342.395508 304.391052,346.578552 290.560608,361.510193
	C285.766083,366.686493 282.329285,373.124847 278.305420,379.009369
	C273.432922,386.134979 270.780792,386.246002 264.998169,380.009918
	C258.821533,373.348877 250.442657,370.419525 241.861877,367.193542
z"/>
<path fill="#909090" opacity="1.000000" stroke="none"
	d="
M295.961243,616.954773
	C292.365234,621.919434 288.087372,625.552246 282.818481,627.917908
	C278.563812,629.828125 274.934021,629.645203 270.965637,626.206055
	C261.056854,617.618652 254.724380,606.728821 248.543350,595.441040
	C243.664078,586.530457 238.800659,577.748718 237.055695,567.660889
	C235.801025,560.407593 237.650940,553.960388 244.119797,549.802734
	C256.377869,541.924255 270.057465,537.156128 283.858643,532.942200
	C290.396698,530.945984 296.828522,538.043274 297.368042,546.540833
	C297.762268,552.749756 296.390625,558.764587 295.629425,564.829468
	C294.524048,573.636536 294.772552,574.308044 302.858948,577.344177
	C306.429718,578.684875 310.015289,580.108704 313.343262,581.948547
	C320.832550,586.088989 321.758423,594.194458 315.313324,600.148804
	C310.579956,604.521667 304.341583,607.069458 300.222687,612.272888
	C298.989136,613.831360 297.531494,615.212463 295.961243,616.954773
z"/>
<path fill="#909090" opacity="1.000000" stroke="none"
	d="
M306.073669,659.931641
	C302.391510,656.791626 298.907440,653.960022 295.614807,650.921021
	C289.648743,645.414368 289.105225,641.878296 293.520233,634.907959
	C299.267609,625.834045 304.945221,616.704590 311.760986,608.349487
	C315.602142,603.640869 320.863068,601.759644 326.478058,600.791260
	C329.899658,600.201172 333.109741,601.546387 335.318604,604.296814
	C339.392029,609.368896 342.553223,614.958435 344.781555,621.133545
	C347.828979,629.578491 352.442627,637.301819 356.668549,645.181763
	C361.027679,653.310181 360.181824,663.468323 354.097992,670.585022
	C348.766724,676.821411 342.425629,681.888062 335.561310,686.314148
	C330.234894,689.748657 324.501556,688.779480 320.595367,683.704407
	C317.233795,679.336975 315.523651,674.059692 313.208984,669.145325
	C311.522339,665.564514 309.326233,662.626160 306.073669,659.931641
z"/>
<path fill="#909090" opacity="1.000000" stroke="none"
	d="
M248.723877,541.732056
	C246.097717,543.535522 243.794922,545.165955 241.417664,546.679321
	C234.285446,551.219849 225.348969,547.327026 224.852158,538.824951
	C223.959656,523.551941 224.121933,508.155975 229.914825,493.697083
	C232.389252,487.520966 234.658447,480.969635 239.977646,476.167023
	C245.539780,471.144989 249.696564,471.593811 253.506500,478.200623
	C254.664825,480.209259 255.907257,482.172607 256.992462,484.219666
	C263.771149,497.006683 269.615601,496.501526 283.293976,495.135193
	C283.941833,495.070496 284.565643,494.756714 285.198578,494.552551
	C288.115173,493.611877 291.038666,492.872223 293.656799,495.244171
	C296.480591,497.802490 295.740906,501.200226 295.035980,504.133453
	C293.801270,509.271362 291.797424,514.218872 290.320160,519.305481
	C288.638092,525.097290 284.583008,527.812378 278.977539,529.116333
	C268.326538,531.593933 258.253204,535.566895 248.723877,541.732056
z"/>
<path fill="#909090" opacity="1.000000" stroke="none"
	d="
M195.635391,386.645264
	C187.074921,395.136688 177.470810,399.201935 165.579941,396.328064
	C163.013016,395.707672 160.841476,394.610718 159.171677,392.753845
	C156.015945,389.244720 157.745575,384.797241 162.165115,383.549896
	C169.932510,381.357605 175.654236,375.955597 180.997101,370.267456
	C184.238358,366.816711 187.982407,364.148163 191.953415,361.721680
	C196.681976,358.832275 201.896683,358.217926 207.317734,358.615295
	C210.417267,358.842529 212.109299,360.831024 213.066452,363.408539
	C214.061401,366.087769 212.455688,367.577301 210.211441,368.935333
	C203.424332,373.042206 200.940125,380.790436 195.635391,386.645264
z"/>
</svg>
